<svg width="198" height="273" viewBox="0 0 198 273" fill="none" xmlns="http://www.w3.org/2000/svg">
<path d="M57.224 133V115.08H62.984C66.824 115.08 69.896 114.013 72.2 111.88C74.5893 109.661 75.784 106.76 75.784 103.176V37.64H95.624V102.28C95.624 108.424 94.3013 113.8 91.656 118.408C89.0107 123.016 85.2133 126.6 80.264 129.16C75.4 131.72 69.64 133 62.984 133H57.224Z" fill="#3C3737"/>
<path d="M105.408 133L137.664 37.64H164.032L196.288 133H174.656L168.256 113.544H133.312L126.912 133H105.408ZM138.816 96.264H162.752L148.16 51.208H153.536L138.816 96.264Z" fill="#3C3737"/>
<path d="M54.272 234.536C47.4453 234.536 41.088 233.299 35.2 230.824C29.312 228.349 24.1493 224.893 19.712 220.456C15.2747 216.019 11.8187 210.813 9.344 204.84C6.86933 198.867 5.632 192.339 5.632 185.256C5.632 178.173 6.82667 171.645 9.216 165.672C11.6053 159.613 14.976 154.408 19.328 150.056C23.68 145.619 28.7573 142.205 34.56 139.816C40.448 137.341 46.848 136.104 53.76 136.104C60.672 136.104 66.8587 137.256 72.32 139.56C77.8667 141.864 82.56 144.936 86.4 148.776C90.24 152.616 92.9707 156.883 94.592 161.576L77.056 170.024C75.4347 165.416 72.576 161.619 68.48 158.632C64.4693 155.56 59.5627 154.024 53.76 154.024C48.128 154.024 43.1787 155.347 38.912 157.992C34.6453 160.637 31.3173 164.307 28.928 169C26.624 173.608 25.472 179.027 25.472 185.256C25.472 191.485 26.7093 196.947 29.184 201.64C31.6587 206.333 35.0293 210.003 39.296 212.648C43.648 215.293 48.64 216.616 54.272 216.616C58.624 216.616 62.6773 215.805 66.432 214.184C70.272 212.477 73.344 210.045 75.648 206.888C78.0373 203.731 79.232 199.933 79.232 195.496V187.56L88.32 195.24H53.76V178.6H99.072V188.712C99.072 196.477 97.792 203.261 95.232 209.064C92.672 214.781 89.216 219.56 84.864 223.4C80.5973 227.155 75.776 229.971 70.4 231.848C65.1093 233.64 59.7333 234.536 54.272 234.536ZM103.033 233L135.289 137.64H161.657L193.913 233H172.281L165.881 213.544H130.937L124.537 233H103.033ZM136.441 196.264H160.377L145.785 151.208H151.161L136.441 196.264Z" fill="#3C3737"/>
<path d="M12.696 266L9.496 242.16H13.368L15.8 262.8H14.68L23.32 242.16H27.096L29.816 262.8H28.568L36.984 242.16H41.048L31.16 266H26.936L24.216 245.68H25.368L16.952 266H12.696ZM48.2288 266.384C46.5648 266.384 45.1034 266.021 43.8448 265.296C42.6074 264.549 41.6368 263.536 40.9328 262.256C40.2501 260.976 39.9088 259.536 39.9088 257.936C39.9088 256.613 40.1328 255.376 40.5807 254.224C41.0501 253.051 41.6901 252.027 42.5008 251.152C43.3328 250.256 44.2928 249.563 45.3808 249.072C46.4901 248.56 47.6954 248.304 48.9968 248.304C50.6821 248.304 52.1008 248.656 53.2528 249.36C54.4261 250.064 55.3114 251.013 55.9088 252.208C56.5061 253.381 56.8048 254.672 56.8048 256.08C56.8048 256.443 56.7728 256.827 56.7088 257.232C56.6448 257.637 56.5808 258.021 56.5168 258.384H42.6927L42.9168 255.504H54.6608L52.8368 256.752C53.1354 255.749 53.1461 254.843 52.8688 254.032C52.5914 253.2 52.1114 252.549 51.4288 252.08C50.7461 251.589 49.9248 251.344 48.9648 251.344C47.7488 251.344 46.7461 251.653 45.9568 252.272C45.1674 252.869 44.5808 253.691 44.1968 254.736C43.8128 255.781 43.6208 256.976 43.6208 258.32C43.6208 259.323 43.8234 260.197 44.2288 260.944C44.6341 261.669 45.1888 262.224 45.8928 262.608C46.5968 262.992 47.3968 263.184 48.2928 263.184C49.3594 263.184 50.2768 262.939 51.0448 262.448C51.8341 261.957 52.4741 261.339 52.9648 260.592L55.8448 262.16C55.4394 262.971 54.8528 263.696 54.0848 264.336C53.3381 264.976 52.4634 265.477 51.4608 265.84C50.4581 266.203 49.3808 266.384 48.2288 266.384ZM59.0843 266L61.4843 248.688H64.9723L64.4923 252.176L64.2043 251.664C64.7589 250.533 65.4949 249.723 66.4123 249.232C67.3296 248.72 68.3856 248.464 69.5803 248.464H70.6363L70.1883 251.76H68.6843C67.4683 251.76 66.4443 252.144 65.6123 252.912C64.7803 253.68 64.2576 254.821 64.0443 256.336L62.7003 266H59.0843ZM79.318 266.384C77.718 266.384 76.2993 266.032 75.062 265.328C73.846 264.603 72.886 263.621 72.182 262.384C71.4993 261.125 71.158 259.696 71.158 258.096C71.158 256.667 71.4033 255.365 71.894 254.192C72.3847 252.997 73.0567 251.963 73.91 251.088C74.7633 250.192 75.7553 249.509 76.886 249.04C78.038 248.549 79.2647 248.304 80.566 248.304C82.0167 248.304 83.2753 248.592 84.342 249.168C85.4087 249.744 86.2407 250.544 86.838 251.568L86.134 252.272L87.574 241.776H91.222L87.83 266H84.374L84.854 262.48L85.718 263.024C85.0567 264.133 84.15 264.976 82.998 265.552C81.8673 266.107 80.6407 266.384 79.318 266.384ZM79.734 263.024C80.8647 263.024 81.8567 262.736 82.71 262.16C83.5847 261.584 84.2673 260.827 84.758 259.888C85.27 258.928 85.526 257.883 85.526 256.752C85.526 255.771 85.3233 254.896 84.918 254.128C84.5127 253.36 83.9473 252.763 83.222 252.336C82.4967 251.888 81.6647 251.664 80.726 251.664C79.6167 251.664 78.6247 251.952 77.75 252.528C76.8753 253.083 76.182 253.84 75.67 254.8C75.1793 255.739 74.934 256.784 74.934 257.936C74.934 258.917 75.1367 259.792 75.542 260.56C75.9473 261.328 76.5127 261.936 77.238 262.384C77.9633 262.811 78.7953 263.024 79.734 263.024ZM92.0843 266L95.4763 241.776H99.0603L97.6203 252.08L97.1083 251.536C97.6629 250.448 98.4309 249.637 99.4123 249.104C100.415 248.571 101.524 248.304 102.74 248.304C104.02 248.304 105.119 248.603 106.036 249.2C106.975 249.797 107.658 250.619 108.084 251.664C108.532 252.709 108.66 253.893 108.468 255.216L106.964 266H103.348L104.788 255.6C104.959 254.405 104.746 253.456 104.148 252.752C103.551 252.027 102.698 251.664 101.588 251.664C100.842 251.664 100.148 251.835 99.5083 252.176C98.8683 252.517 98.3349 252.997 97.9083 253.616C97.5029 254.235 97.2363 254.971 97.1083 255.824L95.7003 266H92.0843ZM116.466 266.384C115.399 266.384 114.439 266.213 113.586 265.872C112.732 265.509 112.05 264.976 111.538 264.272C111.047 263.568 110.802 262.693 110.802 261.648C110.802 260.603 111.068 259.685 111.602 258.896C112.135 258.107 112.882 257.467 113.842 256.976C114.802 256.464 115.911 256.112 117.17 255.92L123.378 254.928L123.09 257.776L117.746 258.704C116.807 258.875 116.039 259.195 115.442 259.664C114.866 260.112 114.578 260.709 114.578 261.456C114.578 262.117 114.812 262.629 115.282 262.992C115.772 263.355 116.412 263.536 117.202 263.536C118.14 263.536 118.983 263.323 119.73 262.896C120.476 262.448 121.095 261.861 121.586 261.136C122.098 260.389 122.407 259.579 122.514 258.704L123.09 254.48C123.175 253.819 123.068 253.264 122.77 252.816C122.492 252.368 122.098 252.027 121.586 251.792C121.074 251.557 120.508 251.44 119.89 251.44C118.887 251.44 117.991 251.707 117.202 252.24C116.434 252.752 115.836 253.413 115.41 254.224L112.498 252.56C112.924 251.707 113.522 250.96 114.29 250.32C115.058 249.68 115.943 249.189 116.946 248.848C117.948 248.485 119.004 248.304 120.114 248.304C121.479 248.304 122.684 248.571 123.73 249.104C124.775 249.637 125.575 250.384 126.13 251.344C126.684 252.283 126.876 253.381 126.706 254.64L125.106 266H121.65L122.066 262.864L122.93 263.024C122.439 263.749 121.863 264.368 121.202 264.88C120.54 265.371 119.804 265.744 118.994 266C118.204 266.256 117.362 266.384 116.466 266.384Z" fill="#3C3737"/>
<rect width="41" height="18" transform="translate(17 115)" fill="#3C3737"/>
<g clip-path="url(#clip0_85_29)">
<path d="M146.307 244.2C147.41 243.035 147.359 241.196 146.194 240.094C145.029 238.99 143.19 239.04 142.087 240.205C140.983 241.371 141.034 243.208 142.199 244.311C143.364 245.415 145.203 245.365 146.307 244.2Z" fill="#3C3737"/>
<path d="M152.857 252.614L149.702 246.359C149.165 245.307 147.879 244.888 146.826 245.425C145.774 245.96 145.355 247.247 145.892 248.299L145.891 248.298L148.697 253.874L144.919 257.059C143.411 258.087 143.813 259.668 143.919 260.61L145.233 265.587C145.319 266.363 146.019 266.92 146.796 266.834C147.571 266.746 148.129 266.046 148.042 265.271L147.652 259.666L151.509 257.257C153.513 256.274 153.841 254.619 152.857 252.614Z" fill="#3C3737"/>
<path d="M140.474 248.401C138.748 248.222 137.204 249.475 137.024 251.2L135.513 265.691C135.465 266.148 135.798 266.558 136.255 266.606C136.713 266.653 137.123 266.321 137.171 265.864L138.681 251.373C138.724 250.966 138.924 250.621 139.219 250.38C139.515 250.142 139.894 250.017 140.301 250.059C140.708 250.102 141.053 250.302 141.293 250.596C141.532 250.892 141.657 251.271 141.615 251.679C141.569 252.114 141.342 252.48 141.014 252.719C140.642 252.989 140.559 253.51 140.829 253.883C141.1 254.255 141.621 254.338 141.993 254.068C142.687 253.565 143.177 252.773 143.273 251.851C143.451 250.126 142.2 248.582 140.474 248.401Z" fill="#3C3737"/>
</g>
<defs>
<clipPath id="clip0_85_29">
<rect width="28" height="28" fill="white" transform="translate(131.903 238) rotate(5.95137)"/>
</clipPath>
</defs>
</svg>
